# xmcd
#
# Track frame offsets: 
#        183
#        11653
#        24945
#        50505
#        63708
#        76823
#        91615
#        103980
#        116578
#        129013
#        140283
#        155020
#        168935
#        181163
#        192773
#        204685
#        218643
#        229403
#        240088
#        250500
#
# Disc length: 3512 seconds
#
# Revision: 4
# Processed by: cddbd v1.5.2PL0 Copyright (c) Steve Scherf et al.
# Submitted via: ExactAudioCopyFreeDBPlugin 1.0
#
DISCID=fa0db614
DTITLE=Various Artist - 60 Greatest Rhythm and Blues Classics
DYEAR=1990
DGENRE=Rhythm and Blues
TTITLE0=John Lee Hooker - Boom Boom
TTITLE1=Buster Brown - Fannie Mae
TTITLE2=Joe Tex - All I Could Do Was Cry
TTITLE3=Chuck Berry - Too Much Monkey Business
TTITLE4=Eugene Church - Pretty Girls Everywhere
TTITLE5=Sam and Dave - When Something is Wrong with My Baby
TTITLE6=Jerry Butler and The Impressions - For Your Precious Love
TTITLE7=Gene Chandler - Rainbow
TTITLE8=Joe Simon - You Keep Me Hangin' On
TTITLE9=Jody Reynolds - Endless Sleep
TTITLE10=Clarence Carter - Patches
TTITLE11=Aaron Neville - Tell it Like it Is
TTITLE12=Jerry Butler with Curtis Mayfield - He Will Break Your Heart
TTITLE13=Tony Clark - The Entertainer
TTITLE14=Barbara Lewis - Hello Stranger
TTITLE15=Jessie Belvin - Goodnight My Love
TTITLE16=Lee Dorsey - Ya Ya
TTITLE17=Etta James - Tell Mama
TTITLE18=Jessie Hill - Oo Poo Pah Doo
TTITLE19=The Dells - Oh What a Night
EXTD=
EXTT0=
EXTT1=
EXTT2=
EXTT3=
EXTT4=
EXTT5=
EXTT6=
EXTT7=
EXTT8=
EXTT9=
EXTT10=
EXTT11=
EXTT12=
EXTT13=
EXTT14=
EXTT15=
EXTT16=
EXTT17=
EXTT18=
EXTT19=
PLAYORDER=
